<mxfile host="app.diagrams.net" modified="2021-04-27T13:39:42.842Z" agent="5.0 (Macintosh; Intel Mac OS X 10_15_7) AppleWebKit/537.36 (KHTML, like Gecko) Chrome/90.0.4430.85 Safari/537.36" etag="2Qm7glJ0tyOfHrBJ5JCi" version="14.6.6" type="github">
  <diagram id="hgHgxHtESYp-Qu_pVvap" name="simple">
    <mxGraphModel dx="946" dy="1758" grid="1" gridSize="10" guides="1" tooltips="1" connect="1" arrows="1" fold="1" page="1" pageScale="1" pageWidth="827" pageHeight="1169" math="0" shadow="0">
      <root>
        <mxCell id="0" />
        <mxCell id="1" parent="0" />
        <mxCell id="Zvd_iHF90Z0iHeTyNScW-1" value="" style="rounded=0;whiteSpace=wrap;html=1;labelBackgroundColor=none;sketch=0;fontFamily=Helvetica;fontSize=32;align=left;" parent="1" vertex="1">
          <mxGeometry x="198" y="-1120" width="680" height="120" as="geometry" />
        </mxCell>
        <mxCell id="Zvd_iHF90Z0iHeTyNScW-2" value="" style="rounded=0;whiteSpace=wrap;html=1;fontFamily=Helvetica;fontSize=32;" parent="1" vertex="1">
          <mxGeometry x="470" y="-755" width="640" height="190" as="geometry" />
        </mxCell>
        <mxCell id="Zvd_iHF90Z0iHeTyNScW-3" value="爬虫 &amp;amp; 代码" style="rounded=0;whiteSpace=wrap;html=1;fontFamily=Helvetica;fontSize=64;fontStyle=1;fontColor=#FFFFFF;strokeColor=#250128114;fillColor=#FA8072;" parent="1" vertex="1">
          <mxGeometry x="20" y="-280" width="400" height="100" as="geometry" />
        </mxCell>
        <mxCell id="Zvd_iHF90Z0iHeTyNScW-4" value="爬虫 &amp;amp; 软件" style="rounded=0;whiteSpace=wrap;html=1;fontFamily=Helvetica;fontSize=64;fontStyle=1;fontColor=#FFFFFF;strokeColor=#250128114;fillColor=#FA8072;" parent="1" vertex="1">
          <mxGeometry x="20" y="-940" width="400" height="100" as="geometry" />
        </mxCell>
        <mxCell id="Zvd_iHF90Z0iHeTyNScW-5" value="爬虫 &amp;amp; 法律" style="rounded=0;whiteSpace=wrap;html=1;fontFamily=Helvetica;fontSize=64;fontStyle=1;fontColor=#FFFFFF;strokeColor=#250128114;fillColor=#FA8072;" parent="1" vertex="1">
          <mxGeometry y="470" width="400" height="100" as="geometry" />
        </mxCell>
        <mxCell id="Zvd_iHF90Z0iHeTyNScW-6" value="EXCEL" style="rounded=0;whiteSpace=wrap;html=1;fontFamily=Helvetica;fontSize=48;fontStyle=1;fontColor=#FFFFFF;strokeColor=none;fillColor=#FF7F50;" parent="1" vertex="1">
          <mxGeometry x="20" y="-770" width="400" height="80" as="geometry" />
        </mxCell>
        <mxCell id="Zvd_iHF90Z0iHeTyNScW-7" value="八爪鱼" style="rounded=0;whiteSpace=wrap;html=1;fontFamily=Helvetica;fontSize=48;fontStyle=1;fontColor=#FFFFFF;strokeColor=none;fillColor=#FF7F50;" parent="1" vertex="1">
          <mxGeometry x="20" y="-650" width="400" height="80" as="geometry" />
        </mxCell>
        <mxCell id="Zvd_iHF90Z0iHeTyNScW-8" value="Web Scraper" style="rounded=0;whiteSpace=wrap;html=1;fontFamily=Helvetica;fontSize=48;fontStyle=1;fontColor=#FFFFFF;strokeColor=none;fillColor=#FF7F50;" parent="1" vertex="1">
          <mxGeometry x="20" y="-540" width="400" height="80" as="geometry" />
        </mxCell>
        <mxCell id="Zvd_iHF90Z0iHeTyNScW-9" value="You-get" style="rounded=0;whiteSpace=wrap;html=1;fontFamily=Helvetica;fontSize=48;fontStyle=1;fontColor=#FFFFFF;strokeColor=none;fillColor=#FF7F50;" parent="1" vertex="1">
          <mxGeometry x="20" y="-420" width="400" height="80" as="geometry" />
        </mxCell>
        <mxCell id="Zvd_iHF90Z0iHeTyNScW-10" value="无障碍" style="rounded=0;whiteSpace=wrap;html=1;fontFamily=Helvetica;fontSize=32;fontStyle=1;fillColor=#000000;fontColor=#FFFFFF;" parent="1" vertex="1">
          <mxGeometry x="510" y="-730" width="120" height="40" as="geometry" />
        </mxCell>
        <mxCell id="Zvd_iHF90Z0iHeTyNScW-11" value="一键" style="rounded=0;whiteSpace=wrap;html=1;fontFamily=Helvetica;fontSize=32;fontStyle=1;fillColor=#000000;fontColor=#FFFFFF;" parent="1" vertex="1">
          <mxGeometry x="510" y="-680" width="90" height="40" as="geometry" />
        </mxCell>
        <mxCell id="Zvd_iHF90Z0iHeTyNScW-12" value="获取音频和视频" style="rounded=0;whiteSpace=wrap;html=1;fontFamily=Helvetica;fontSize=32;fontStyle=1;fillColor=#000000;fontColor=#FFFFFF;" parent="1" vertex="1">
          <mxGeometry x="510" y="-630" width="250" height="40" as="geometry" />
        </mxCell>
        <mxCell id="Zvd_iHF90Z0iHeTyNScW-13" value="从哪里获取Bing壁纸" style="rounded=0;whiteSpace=wrap;html=1;fontFamily=Helvetica;fontSize=48;fontStyle=1;fontColor=#FFFFFF;strokeColor=none;fillColor=#FF7F50;" parent="1" vertex="1">
          <mxGeometry x="20" y="-100" width="520" height="80" as="geometry" />
        </mxCell>
        <mxCell id="Zvd_iHF90Z0iHeTyNScW-14" value="怎么样获取Bing壁纸" style="rounded=0;whiteSpace=wrap;html=1;fontFamily=Helvetica;fontSize=48;fontStyle=1;fontColor=#FFFFFF;strokeColor=none;fillColor=#FF7F50;" parent="1" vertex="1">
          <mxGeometry x="20" y="10" width="520" height="80" as="geometry" />
        </mxCell>
        <mxCell id="Zvd_iHF90Z0iHeTyNScW-15" value="怎么样分享Bing壁纸" style="rounded=0;whiteSpace=wrap;html=1;fontFamily=Helvetica;fontSize=48;fontStyle=1;fontColor=#FFFFFF;strokeColor=none;fillColor=#FF7F50;" parent="1" vertex="1">
          <mxGeometry x="20" y="130" width="520" height="80" as="geometry" />
        </mxCell>
        <mxCell id="Zvd_iHF90Z0iHeTyNScW-16" value="八爪鱼" style="rounded=0;whiteSpace=wrap;html=1;fontFamily=Helvetica;fontSize=48;fontStyle=1;fontColor=#FFFFFF;strokeColor=none;fillColor=#FFEC8B;" parent="1" vertex="1">
          <mxGeometry x="460" y="-490" width="400" height="80" as="geometry" />
        </mxCell>
        <mxCell id="Zvd_iHF90Z0iHeTyNScW-17" value="直接从bing.com获取壁纸" style="rounded=0;whiteSpace=wrap;html=1;fontFamily=Helvetica;fontSize=48;fontStyle=1;fontColor=#FFFFFF;fillColor=#97D077;strokeColor=none;" parent="1" vertex="1">
          <mxGeometry x="600" y="-320" width="670" height="80" as="geometry" />
        </mxCell>
        <mxCell id="Zvd_iHF90Z0iHeTyNScW-18" value="从已经收集历史壁纸的网站获取" style="rounded=0;whiteSpace=wrap;html=1;fontFamily=Helvetica;fontSize=48;fontStyle=1;fontColor=#FFFFFF;fillColor=#97D077;strokeColor=none;" parent="1" vertex="1">
          <mxGeometry x="610" y="-220" width="780" height="80" as="geometry" />
        </mxCell>
        <mxCell id="Zvd_iHF90Z0iHeTyNScW-19" value="Selenium" style="rounded=0;whiteSpace=wrap;html=1;fontFamily=Helvetica;fontSize=48;fontStyle=1;fontColor=#FFFFFF;fillColor=#97D077;strokeColor=none;" parent="1" vertex="1">
          <mxGeometry x="610" y="-80" width="400" height="80" as="geometry" />
        </mxCell>
        <mxCell id="Zvd_iHF90Z0iHeTyNScW-20" value="Scrapy" style="rounded=0;whiteSpace=wrap;html=1;fontFamily=Helvetica;fontSize=48;fontStyle=1;fontColor=#FFFFFF;fillColor=#97D077;strokeColor=none;" parent="1" vertex="1">
          <mxGeometry x="610" y="30" width="400" height="80" as="geometry" />
        </mxCell>
        <mxCell id="Zvd_iHF90Z0iHeTyNScW-21" value="Celery" style="rounded=0;whiteSpace=wrap;html=1;fontFamily=Helvetica;fontSize=48;fontStyle=1;fontColor=#FFFFFF;fillColor=#97D077;strokeColor=none;" parent="1" vertex="1">
          <mxGeometry x="610" y="130" width="400" height="80" as="geometry" />
        </mxCell>
        <mxCell id="Zvd_iHF90Z0iHeTyNScW-22" value="" style="group;strokeColor=#000000;" parent="1" vertex="1" connectable="0">
          <mxGeometry x="530" y="367.5" width="760" height="75" as="geometry" />
        </mxCell>
        <mxCell id="Zvd_iHF90Z0iHeTyNScW-23" value="" style="rounded=0;whiteSpace=wrap;html=1;labelBackgroundColor=none;sketch=0;fontFamily=Helvetica;fontSize=32;align=left;strokeColor=none;" parent="Zvd_iHF90Z0iHeTyNScW-22" vertex="1">
          <mxGeometry width="760" height="75" as="geometry" />
        </mxCell>
        <mxCell id="Zvd_iHF90Z0iHeTyNScW-24" value="Selenium" style="rounded=0;whiteSpace=wrap;html=1;fontFamily=Helvetica;fontSize=32;fontStyle=1;fontColor=#FFFFFF;fillColor=#97D077;strokeColor=none;" parent="Zvd_iHF90Z0iHeTyNScW-22" vertex="1">
          <mxGeometry x="50" y="17.5" width="200" height="40" as="geometry" />
        </mxCell>
        <mxCell id="Zvd_iHF90Z0iHeTyNScW-25" value="Scrapy" style="rounded=0;whiteSpace=wrap;html=1;fontFamily=Helvetica;fontSize=32;fontStyle=1;fontColor=#FFFFFF;fillColor=#97D077;strokeColor=none;" parent="Zvd_iHF90Z0iHeTyNScW-22" vertex="1">
          <mxGeometry x="280" y="17.5" width="200" height="40" as="geometry" />
        </mxCell>
        <mxCell id="Zvd_iHF90Z0iHeTyNScW-26" value="Celery" style="rounded=0;whiteSpace=wrap;html=1;fontFamily=Helvetica;fontSize=32;fontStyle=1;fontColor=#FFFFFF;fillColor=#97D077;strokeColor=none;" parent="Zvd_iHF90Z0iHeTyNScW-22" vertex="1">
          <mxGeometry x="510" y="17.5" width="200" height="40" as="geometry" />
        </mxCell>
        <mxCell id="Zvd_iHF90Z0iHeTyNScW-27" value="" style="group" parent="1" vertex="1" connectable="0">
          <mxGeometry x="1000" y="490" width="200" height="200" as="geometry" />
        </mxCell>
        <mxCell id="Zvd_iHF90Z0iHeTyNScW-28" value="" style="whiteSpace=wrap;html=1;aspect=fixed;labelBackgroundColor=none;sketch=0;fontFamily=Helvetica;fontSize=32;align=left;strokeColor=none;fillColor=#97D077;opacity=30;" parent="Zvd_iHF90Z0iHeTyNScW-27" vertex="1">
          <mxGeometry width="200" height="200" as="geometry" />
        </mxCell>
        <mxCell id="Zvd_iHF90Z0iHeTyNScW-29" value="" style="whiteSpace=wrap;html=1;aspect=fixed;labelBackgroundColor=none;sketch=0;fontFamily=Helvetica;fontSize=32;align=left;fillColor=#97D077;strokeColor=none;opacity=30;" parent="Zvd_iHF90Z0iHeTyNScW-27" vertex="1">
          <mxGeometry x="10" y="10" width="180" height="180" as="geometry" />
        </mxCell>
        <mxCell id="Zvd_iHF90Z0iHeTyNScW-30" value="" style="whiteSpace=wrap;html=1;aspect=fixed;labelBackgroundColor=none;sketch=0;fontFamily=Helvetica;fontSize=32;align=left;fillColor=#97D077;strokeColor=none;opacity=30;" parent="Zvd_iHF90Z0iHeTyNScW-27" vertex="1">
          <mxGeometry x="15" y="15" width="170" height="170" as="geometry" />
        </mxCell>
        <mxCell id="Zvd_iHF90Z0iHeTyNScW-31" value="" style="whiteSpace=wrap;html=1;aspect=fixed;labelBackgroundColor=none;sketch=0;fontFamily=Helvetica;fontSize=32;align=left;fillColor=#97D077;strokeColor=none;opacity=30;" parent="Zvd_iHF90Z0iHeTyNScW-27" vertex="1">
          <mxGeometry x="20" y="20" width="160" height="160" as="geometry" />
        </mxCell>
        <mxCell id="Zvd_iHF90Z0iHeTyNScW-32" value="" style="whiteSpace=wrap;html=1;aspect=fixed;labelBackgroundColor=none;sketch=0;fontFamily=Helvetica;fontSize=32;align=left;fillColor=#97D077;strokeColor=none;opacity=30;" parent="Zvd_iHF90Z0iHeTyNScW-27" vertex="1">
          <mxGeometry x="25" y="25" width="150" height="150" as="geometry" />
        </mxCell>
        <mxCell id="Zvd_iHF90Z0iHeTyNScW-33" value="" style="whiteSpace=wrap;html=1;aspect=fixed;labelBackgroundColor=none;sketch=0;fontFamily=Helvetica;fontSize=32;align=left;fillColor=#97D077;strokeColor=none;opacity=30;" parent="Zvd_iHF90Z0iHeTyNScW-27" vertex="1">
          <mxGeometry x="30" y="30" width="140" height="140" as="geometry" />
        </mxCell>
        <mxCell id="Zvd_iHF90Z0iHeTyNScW-34" value="" style="whiteSpace=wrap;html=1;aspect=fixed;labelBackgroundColor=none;sketch=0;fontFamily=Helvetica;fontSize=32;align=left;fillColor=#97D077;strokeColor=none;opacity=30;" parent="Zvd_iHF90Z0iHeTyNScW-27" vertex="1">
          <mxGeometry x="35" y="35" width="130" height="130" as="geometry" />
        </mxCell>
        <mxCell id="Zvd_iHF90Z0iHeTyNScW-35" value="" style="whiteSpace=wrap;html=1;aspect=fixed;labelBackgroundColor=none;sketch=0;fontFamily=Helvetica;fontSize=32;align=left;fillColor=#97D077;strokeColor=none;opacity=30;" parent="Zvd_iHF90Z0iHeTyNScW-27" vertex="1">
          <mxGeometry x="40" y="40" width="120" height="120" as="geometry" />
        </mxCell>
        <mxCell id="Zvd_iHF90Z0iHeTyNScW-36" value="" style="whiteSpace=wrap;html=1;aspect=fixed;labelBackgroundColor=none;sketch=0;fontFamily=Helvetica;fontSize=32;align=left;fillColor=#97D077;strokeColor=none;opacity=30;" parent="Zvd_iHF90Z0iHeTyNScW-27" vertex="1">
          <mxGeometry x="45" y="45" width="110" height="110" as="geometry" />
        </mxCell>
        <mxCell id="Zvd_iHF90Z0iHeTyNScW-37" value="" style="whiteSpace=wrap;html=1;aspect=fixed;labelBackgroundColor=none;sketch=0;fontFamily=Helvetica;fontSize=32;align=left;fillColor=#97D077;strokeColor=none;opacity=30;" parent="Zvd_iHF90Z0iHeTyNScW-27" vertex="1">
          <mxGeometry x="50" y="50" width="100" height="100" as="geometry" />
        </mxCell>
        <mxCell id="Zvd_iHF90Z0iHeTyNScW-38" value="" style="whiteSpace=wrap;html=1;aspect=fixed;labelBackgroundColor=none;sketch=0;fontFamily=Helvetica;fontSize=32;align=left;fillColor=#97D077;strokeColor=none;opacity=30;" parent="Zvd_iHF90Z0iHeTyNScW-27" vertex="1">
          <mxGeometry x="55" y="55" width="90" height="90" as="geometry" />
        </mxCell>
        <mxCell id="Zvd_iHF90Z0iHeTyNScW-39" value="" style="whiteSpace=wrap;html=1;aspect=fixed;labelBackgroundColor=none;sketch=0;fontFamily=Helvetica;fontSize=32;align=left;fillColor=#97D077;strokeColor=none;opacity=30;" parent="Zvd_iHF90Z0iHeTyNScW-27" vertex="1">
          <mxGeometry x="60" y="60" width="80" height="80" as="geometry" />
        </mxCell>
        <mxCell id="Zvd_iHF90Z0iHeTyNScW-40" value="" style="whiteSpace=wrap;html=1;aspect=fixed;labelBackgroundColor=none;sketch=0;fontFamily=Helvetica;fontSize=32;align=left;fillColor=#97D077;strokeColor=none;opacity=30;" parent="Zvd_iHF90Z0iHeTyNScW-27" vertex="1">
          <mxGeometry x="65" y="65" width="70" height="70" as="geometry" />
        </mxCell>
        <mxCell id="Zvd_iHF90Z0iHeTyNScW-41" value="" style="whiteSpace=wrap;html=1;aspect=fixed;labelBackgroundColor=none;sketch=0;fontFamily=Helvetica;fontSize=32;align=left;fillColor=#97D077;strokeColor=none;opacity=30;" parent="Zvd_iHF90Z0iHeTyNScW-27" vertex="1">
          <mxGeometry x="70" y="70" width="60" height="60" as="geometry" />
        </mxCell>
        <mxCell id="Zvd_iHF90Z0iHeTyNScW-42" value="" style="whiteSpace=wrap;html=1;aspect=fixed;labelBackgroundColor=none;sketch=0;fontFamily=Helvetica;fontSize=32;align=left;fillColor=#97D077;strokeColor=none;opacity=30;" parent="Zvd_iHF90Z0iHeTyNScW-27" vertex="1">
          <mxGeometry x="75" y="75" width="50" height="50" as="geometry" />
        </mxCell>
        <mxCell id="Zvd_iHF90Z0iHeTyNScW-43" value="" style="whiteSpace=wrap;html=1;aspect=fixed;labelBackgroundColor=none;sketch=0;fontFamily=Helvetica;fontSize=32;align=left;fillColor=#97D077;strokeColor=none;opacity=30;" parent="Zvd_iHF90Z0iHeTyNScW-27" vertex="1">
          <mxGeometry x="80" y="80" width="40" height="40" as="geometry" />
        </mxCell>
        <mxCell id="Zvd_iHF90Z0iHeTyNScW-44" value="" style="whiteSpace=wrap;html=1;aspect=fixed;labelBackgroundColor=none;sketch=0;fontFamily=Helvetica;fontSize=32;align=left;fillColor=#97D077;strokeColor=none;opacity=30;" parent="Zvd_iHF90Z0iHeTyNScW-27" vertex="1">
          <mxGeometry x="85" y="85" width="30" height="30" as="geometry" />
        </mxCell>
        <mxCell id="Zvd_iHF90Z0iHeTyNScW-45" value="" style="whiteSpace=wrap;html=1;aspect=fixed;labelBackgroundColor=none;sketch=0;fontFamily=Helvetica;fontSize=32;align=left;fillColor=#97D077;strokeColor=none;opacity=30;" parent="Zvd_iHF90Z0iHeTyNScW-27" vertex="1">
          <mxGeometry x="90" y="90" width="20" height="20" as="geometry" />
        </mxCell>
        <mxCell id="Zvd_iHF90Z0iHeTyNScW-46" value="" style="whiteSpace=wrap;html=1;aspect=fixed;labelBackgroundColor=none;sketch=0;fontFamily=Helvetica;fontSize=32;align=left;fillColor=#97D077;strokeColor=none;opacity=30;" parent="Zvd_iHF90Z0iHeTyNScW-27" vertex="1">
          <mxGeometry x="95" y="95" width="10" height="10" as="geometry" />
        </mxCell>
        <mxCell id="Zvd_iHF90Z0iHeTyNScW-47" value="&lt;p class=&quot;p1&quot;&gt;不用Nginx&lt;/p&gt;&#xa;&lt;p class=&quot;p1&quot;&gt;不用Flask or Django&lt;/p&gt;&#xa;&lt;p class=&quot;p1&quot;&gt;不用FTP&lt;/p&gt;&#xa;&lt;p class=&quot;p1&quot;&gt;&lt;span class=&quot;s1&quot;&gt;只用&lt;/span&gt;http.server&lt;span class=&quot;s1&quot;&gt;，一行命令搞定&lt;/span&gt;&lt;/p&gt;" style="text;whiteSpace=wrap;html=1;fontSize=32;fontFamily=Helvetica;fontColor=#E6E6E6;" parent="1" vertex="1">
          <mxGeometry x="1360" y="-560" width="460" height="540" as="geometry" />
        </mxCell>
        <mxCell id="Zvd_iHF90Z0iHeTyNScW-48" value="" style="rounded=0;whiteSpace=wrap;html=1;fontFamily=Helvetica;fontSize=32;" parent="1" vertex="1">
          <mxGeometry x="1170" y="-880" width="640" height="210" as="geometry" />
        </mxCell>
        <mxCell id="Zvd_iHF90Z0iHeTyNScW-49" value="不用Nginx" style="rounded=0;whiteSpace=wrap;html=1;fontFamily=Helvetica;fontSize=32;fontStyle=1;fillColor=#000000;fontColor=#FFFFFF;align=left;spacingLeft=10;" parent="1" vertex="1">
          <mxGeometry x="1180" y="-870" width="240" height="40" as="geometry" />
        </mxCell>
        <mxCell id="Zvd_iHF90Z0iHeTyNScW-50" value="不用Flask" style="rounded=0;whiteSpace=wrap;html=1;fontFamily=Helvetica;fontSize=32;fontStyle=1;fillColor=#000000;fontColor=#FFFFFF;align=left;spacingLeft=10;" parent="1" vertex="1">
          <mxGeometry x="1180" y="-820" width="200" height="40" as="geometry" />
        </mxCell>
        <mxCell id="Zvd_iHF90Z0iHeTyNScW-51" value="不用FTP" style="rounded=0;whiteSpace=wrap;html=1;fontFamily=Helvetica;fontSize=32;fontStyle=1;fillColor=#000000;fontColor=#FFFFFF;align=left;spacingLeft=10;" parent="1" vertex="1">
          <mxGeometry x="1180" y="-770" width="170" height="40" as="geometry" />
        </mxCell>
        <mxCell id="Zvd_iHF90Z0iHeTyNScW-52" value="只用http.server一行命令" style="rounded=0;whiteSpace=wrap;html=1;fontFamily=Helvetica;fontSize=32;fontStyle=1;fillColor=#000000;fontColor=#FFFFFF;align=left;spacingLeft=10;" parent="1" vertex="1">
          <mxGeometry x="1180" y="-720" width="410" height="40" as="geometry" />
        </mxCell>
        <mxCell id="Zvd_iHF90Z0iHeTyNScW-53" value="爬虫 &amp;amp; 法律" style="rounded=0;whiteSpace=wrap;html=1;fontFamily=Helvetica;fontSize=64;fontStyle=1;fontColor=#FFFFFF;strokeColor=#250128114;fillColor=#FA8072;" parent="1" vertex="1">
          <mxGeometry x="850" y="-940" width="400" height="100" as="geometry" />
        </mxCell>
        <mxCell id="Zvd_iHF90Z0iHeTyNScW-54" value="爬虫 &amp;amp; 代码" style="rounded=0;whiteSpace=wrap;html=1;fontFamily=Helvetica;fontSize=64;fontStyle=1;fontColor=#FFFFFF;strokeColor=#250128114;fillColor=#FA8072;" parent="1" vertex="1">
          <mxGeometry x="435" y="-940" width="400" height="100" as="geometry" />
        </mxCell>
        <mxCell id="Zvd_iHF90Z0iHeTyNScW-55" value="代码" style="rounded=0;whiteSpace=wrap;html=1;fontFamily=Helvetica;fontSize=64;fontStyle=1;fontColor=#FFFFFF;strokeColor=#250128114;fillColor=#FA8072;" parent="1" vertex="1">
          <mxGeometry x="438" y="-1110" width="200" height="100" as="geometry" />
        </mxCell>
        <mxCell id="Zvd_iHF90Z0iHeTyNScW-56" value="软件" style="rounded=0;whiteSpace=wrap;html=1;fontFamily=Helvetica;fontSize=64;fontStyle=1;fontColor=#FFFFFF;strokeColor=#250128114;fillColor=#FA8072;" parent="1" vertex="1">
          <mxGeometry x="220" y="-1110" width="200" height="100" as="geometry" />
        </mxCell>
        <mxCell id="Zvd_iHF90Z0iHeTyNScW-57" value="法律" style="rounded=0;whiteSpace=wrap;html=1;fontFamily=Helvetica;fontSize=64;fontStyle=1;fontColor=#FFFFFF;strokeColor=#250128114;fillColor=#FA8072;" parent="1" vertex="1">
          <mxGeometry x="660" y="-1110" width="200" height="100" as="geometry" />
        </mxCell>
        <mxCell id="l9LtEfYsvtCQdtjN0iFe-1" value="存储每一棵子树" style="rounded=1;whiteSpace=wrap;html=1;fontFamily=Helvetica;fontSize=48;fontStyle=1;fontColor=#FFFFFF;fillColor=#97D077;strokeColor=none;arcSize=50;" vertex="1" parent="1">
          <mxGeometry x="460" y="640" width="420" height="80" as="geometry" />
        </mxCell>
      </root>
    </mxGraphModel>
  </diagram>
</mxfile>
